<svg width="267" height="38" fill="none" xmlns="http://www.w3.org/2000/svg"><path d="M23.188 34.406l-.527-.85-.003.002.53.848zm-20.32-5.789l-.902.434.001.002.9-.436zm-1.852-8.719h-1v.005l1-.005zM2.82 9.352l-.903-.43v.002l.903.428zm5.133-5.883l.525.85h.002l-.527-.85zm15.164 0l-.53.848.008.004.522-.852zm5.133 5.883l-.905.425.003.006.902-.431zm-18.164.632l.819.574.002-.003-.821-.57zM8.14 18.047l-1-.005v.005h1zm12.89 9.89l.825.566.002-.003-.827-.563zm1.922-8.109l1 .005v-.005h-1zm6.125-.117c0 3.242-.573 6.037-1.686 8.411l1.81.85c1.261-2.689 1.876-5.784 1.876-9.261h-2zm-1.686 8.411c-1.112 2.369-2.69 4.169-4.731 5.434l1.053 1.7c2.396-1.484 4.225-3.59 5.488-6.284l-1.81-.85zm-4.734 5.436c-2.029 1.266-4.373 1.91-7.064 1.91v2c3.027 0 5.745-.73 8.123-2.213l-1.059-1.697zm-7.064 1.91c-2.66 0-5-.636-7.048-1.891L7.5 35.282c2.39 1.464 5.097 2.187 8.093 2.187v-2zm-7.048-1.891c-2.044-1.252-3.637-3.039-4.779-5.396l-1.8.872c1.296 2.675 3.14 4.763 5.534 6.23l1.045-1.706zm-4.778-5.394c-1.144-2.376-1.737-5.132-1.752-8.29l-2 .01c.016 3.405.657 6.462 1.95 9.148l1.802-.868zm-1.752-8.285v-1.687h-2v1.687h2zm0-1.687c0-3.24.58-6.042 1.708-8.432l-1.808-.855c-1.277 2.704-1.9 5.808-1.9 9.287h2zm1.707-8.43C4.868 7.375 6.455 5.568 8.478 4.32l-1.05-1.702c-2.383 1.47-4.218 3.585-5.51 6.304l1.805.86zM8.48 4.32c2.046-1.268 4.392-1.913 7.067-1.913v-2c-3.013 0-5.73.731-8.12 2.213l1.053 1.7zm7.067-1.913c2.675 0 5.011.645 7.04 1.911l1.06-1.697C21.27 1.137 18.559.406 15.547.406v2zm7.048 1.915c2.037 1.249 3.622 3.054 4.75 5.456l1.81-.85c-1.278-2.724-3.115-4.84-5.515-6.31L22.595 4.32zm4.753 5.462c1.143 2.39 1.73 5.183 1.73 8.405h2c0-3.466-.632-6.564-1.926-9.268l-1.804.863zm1.73 8.405v1.523h2v-1.523h-2zm-5.125-.024c0-3.672-.653-6.626-2.098-8.724l-1.647 1.135c1.117 1.621 1.745 4.105 1.745 7.59h2zM21.855 9.44c-1.48-2.146-3.624-3.221-6.308-3.221v2c2.066 0 3.577.784 4.66 2.356l1.648-1.135zm-6.308-3.22c-2.667 0-4.803 1.066-6.282 3.195l1.642 1.141c1.084-1.559 2.588-2.336 4.64-2.336v-2zm-6.28 3.19c-1.449 2.068-2.11 4.992-2.126 8.633l2 .008c.015-3.453.65-5.904 1.764-7.493L9.267 9.41zm-2.126 8.637v1.664h2v-1.664h-2zm0 1.664c0 3.588.656 6.514 2.09 8.664l1.664-1.11c-1.13-1.693-1.754-4.173-1.754-7.554h-2zm2.09 8.664c1.475 2.214 3.639 3.328 6.363 3.328v-2c-2.089 0-3.613-.807-4.7-2.437L9.23 28.375zm6.363 3.328c2.667 0 4.798-1.067 6.262-3.2l-1.65-1.131c-1.066 1.554-2.56 2.331-4.612 2.331v2zm6.264-3.203c1.425-2.094 2.08-5.027 2.095-8.668l-2-.008c-.015 3.453-.642 5.926-1.748 7.55l1.653 1.126zm2.095-8.672v-1.664h-2v1.664h2zm32.68 6.82l.86-.509-.29-.49h-.57v1zm-2.719 0v-1h-1v1h1zm0 9.352v1h1v-1h-1zm-6.773 0h-1v1h1v-1zm0-25.36v-1h-1v1h1zm6.773 0h1v-1h-1v1zm0 9.54h-1v1h1v-1zm2.414 0v1h.576l.29-.499-.866-.501zm5.531-9.54v-1h-.576l-.289.499.865.502zm8.555 0l.824.567 1.077-1.566h-1.9v1zm-8.297 12.07l-.824-.566-.388.565.386.566.826-.564zM71.187 36v1h1.894l-1.068-1.564-.826.564zm-9.023 0l-.86.51.29.49h.57v-1zm-5.531-10.352h-2.719v2h2.719v-2zm-3.719 1V36h2v-9.352h-2zm1 8.352h-6.773v2h6.773v-2zm-5.773 1V10.64h-2V36h2zm-1-24.36h6.773v-2h-6.773v2zm5.773-1v9.54h2v-9.54h-2zm1 10.54h2.414v-2h-2.414v2zm3.28-.499l5.53-9.539-1.73-1.003-5.531 9.54 1.73 1.002zm4.665-9.04h8.555v-2H61.86v2zm7.731-1.567l-8.297 12.07 1.648 1.133 8.297-12.07-1.648-1.133zm-8.299 13.2l9.07 13.29 1.652-1.128-9.07-13.289-1.652 1.128zM71.188 35h-9.024v2h9.023v-2zm-8.163.49l-5.532-9.35-1.72 1.017 5.53 9.352 1.722-1.018zm13.928-23.7l-.508-.862-.003.002.511.86zm14.719 1.523l-.697.717.003.002.694-.72zm3.633 8.53l1-.026-.001-.021-.002-.022-.997.07zm.047 1.735h1v-.027l-1 .027zm-3.258 9.375l.733.68.002-.003-.735-.677zm-17.508 0l-.734.68.003.002.73-.682zm4.875-3.844l-.817.578.004.005.813-.583zm7.734.024l.805.593.004-.004-.809-.59zm-7.734-11.531l.816.577.004-.005-.82-.572zm-7.133 5.484c0-2.385.459-4.473 1.35-6.285l-1.794-.883c-1.046 2.125-1.556 4.522-1.556 7.168h2zm1.35-6.285c.887-1.802 2.147-3.177 3.786-4.152l-1.022-1.72c-1.986 1.182-3.507 2.854-4.558 4.989l1.794.883zm3.783-4.15c1.655-.976 3.592-1.48 5.844-1.48v-2c-2.56 0-4.858.576-6.86 1.757l1.016 1.722zm5.844-1.48c3.2 0 5.727.972 7.67 2.859l1.394-1.435c-2.37-2.3-5.421-3.423-9.064-3.423v2zm7.673 2.861c1.96 1.89 3.093 4.484 3.33 7.881l1.994-.139c-.263-3.79-1.553-6.884-3.936-9.181l-1.388 1.44zm3.327 7.839l.047 1.734 2-.054-.048-1.734-1.999.054zm.047 1.707c0 3.696-1.027 6.56-2.994 8.698l1.471 1.354c2.377-2.581 3.523-5.967 3.523-10.052h-2zm-2.992 8.695c-1.954 2.11-4.587 3.196-8.008 3.196v2c3.89 0 7.086-1.258 9.475-3.836l-1.467-1.36zm-8.008 3.196c-3.422 0-6.064-1.086-8.035-3.198l-1.462 1.364c2.404 2.576 5.606 3.834 9.497 3.834v-2zm-8.033-3.196c-1.959-2.114-2.99-5.035-2.99-8.882h-2c0 4.214 1.139 7.668 3.523 10.242l1.467-1.36zm-2.99-8.882v-.305h-2v.305h2zm4.773.187c0 2.51.468 4.59 1.542 6.109l1.633-1.155c-.738-1.044-1.175-2.651-1.175-4.954h-2zm1.546 6.114c1.112 1.552 2.725 2.316 4.704 2.316v-2c-1.397 0-2.377-.502-3.078-1.48l-1.626 1.164zm4.704 2.316c1.937 0 3.526-.76 4.648-2.282l-1.61-1.187c-.72.978-1.695 1.469-3.038 1.469v2zm4.652-2.286c1.11-1.525 1.574-3.802 1.574-6.636h-2c0 2.697-.458 4.451-1.191 5.458l1.617 1.178zm1.574-6.636c0-2.472-.48-4.534-1.568-6.064l-1.63 1.159c.757 1.064 1.198 2.658 1.198 4.905h2zm-1.568-6.064c-1.12-1.576-2.73-2.366-4.705-2.366v2c1.367 0 2.352.507 3.075 1.525l1.63-1.159zm-4.705-2.366c-1.965 0-3.56.794-4.664 2.373l1.64 1.145c.709-1.014 1.676-1.518 3.024-1.518v-2zm-4.66 2.368c-1.085 1.534-1.543 3.777-1.543 6.554h2c0-2.63.447-4.37 1.175-5.399l-1.633-1.155zm36.324 10.984l-.935.354.931 2.457.938-2.454-.934-.357zm6.633-17.367v-1h-.689l-.246.643.935.357zm8.484 0h1v-1h-1v1zm0 25.359v1h1v-1h-1zm-6.774 0h-1v1h1v-1zm0-15.563h1l-1.931-.363.931.363zM117.242 36v1h.684l.248-.637-.932-.363zm-4.547 0l-.932.362.248.638h.684v-1zm-5.953-15.305l.932-.362-1.932.362h1zm0 15.305v1h1v-1h-1zm-6.773 0h-1v1h1v-1zm0-25.36v-1h-1v1h1zm8.414 0l.935-.354-.245-.645h-.69v1zm7.52 17.725l6.633-17.368-1.869-.713-6.632 17.367 1.868.714zm5.699-16.724h8.484v-2h-8.484v2zm7.484-1V36h2V10.64h-2zm1 24.359h-6.774v2h6.774v-2zm-5.774 1V20.437h-2V36h2zm-1.931-15.926l-6.07 15.563 1.863.726 6.07-15.562-1.863-.727zM117.242 35h-4.547v2h4.547v-2zm-3.615.638l-5.953-15.305-1.864.725 5.953 15.304 1.864-.724zm-7.885-14.943V36h2V20.695h-2zm1 14.305h-6.773v2h6.773v-2zm-5.773 1V10.64h-2V36h2zm-1-24.36h8.414v-2h-8.414v2zm7.479-.645l6.586 17.367 1.87-.709-6.586-17.367-1.87.71zM158.047 36v1h1v-1h-1zm-6.797 0h-1v1h1v-1zm0-19.875h1v-1h-1v1zm-8.484 0v-1h-1v1h1zm0 19.875v1h1v-1h-1zm-6.774 0h-1v1h1v-1zm0-25.36v-1h-1v1h1zm22.055 0h1v-1h-1v1zm0 24.36h-6.797v2h6.797v-2zm-5.797 1V16.125h-2V36h2zm-1-20.875h-8.484v2h8.484v-2zm-9.484 1V36h2V16.125h-2zm1 18.875h-6.774v2h6.774v-2zm-5.774 1V10.64h-2V36h2zm-1-24.36h22.055v-2h-22.055v2zm21.055-1V36h2V10.64h-2zM177.922 36l-.89.456.279.544h.611v-1zm-.68-2.273l.988-.154-.323-2.084-1.409 1.57.744.668zm-12.586.586l-.662.748.003.004.659-.752zm.539-11.626l-.583-.812-.003.003.586.81zm8.649-2.18v-1h-.004l.004 1zm3.117 0v1h1v-1h-1zm-.914-4.265l-.764.645.008.01.756-.655zm-5.531-.234l-.641-.768-.009.007.65.76zm-.961 2.25v1h1v-1h-1zm-6.774 0h-1v1h1v-1zm5.203-7.008l.391.92.007-.003-.398-.917zm13.008 1.29l-.653.756.007.006.646-.763zm2.766 17.6h-1v.007l1-.006zm1.008 5.462h1v-.25l-.117-.22-.883.47zm0 .398v1h1v-1h-1zm-9.68-5.367l.46.888.007-.004.006-.003-.473-.881zm1.875-1.805l.879.476.121-.222v-.254h-1zm0-4.36h1v-1h-1v1zm-7.945 3.516l-.996-.093-.002.018-.001.017.999.058zm-.024.399l-.998-.059-.002.03v.029h1zm9.82 7.16c-.251-.487-.452-1.136-.582-1.97l-1.976.307c.152.978.403 1.846.778 2.576l1.78-.912zm-2.314-2.484c-1.437 1.6-3.291 2.41-5.654 2.41v2c2.887 0 5.298-1.02 7.142-3.075l-1.488-1.335zm-5.654 2.41c-2.278 0-4.096-.653-5.529-1.909l-1.318 1.505c1.849 1.62 4.156 2.404 6.847 2.404v-2zm-5.525-1.906c-1.409-1.245-2.1-2.784-2.1-4.688h-2c0 2.471.933 4.557 2.775 6.187l1.325-1.498zm-2.1-4.688c0-2.403.866-4.148 2.563-5.378l-1.173-1.62c-2.272 1.646-3.39 4.026-3.39 6.998h2zm2.56-5.375c1.763-1.268 4.408-1.977 8.069-1.992l-.008-2c-3.871.016-6.991.76-9.228 2.367l1.167 1.625zm8.065-1.992h3.117v-2h-3.117v2zm4.117-1v-1.453h-2v1.453h2zm0-1.453c0-1.348-.354-2.54-1.158-3.468l-1.512 1.31c.414.478.67 1.162.67 2.158h2zm-1.15-3.458c-.852-1.009-2.134-1.41-3.6-1.41v2c1.128 0 1.736.303 2.072.7l1.528-1.29zm-3.6-1.41c-1.296 0-2.447.312-3.336 1.053l1.281 1.536c.424-.353 1.069-.588 2.055-.588v-2zm-3.345 1.06c-.894.763-1.311 1.808-1.311 3.01h2c0-.703.223-1.158.61-1.489l-1.299-1.52zm-.311 2.01h-6.774v2h6.774v-2zm-5.774 1c0-1.246.38-2.402 1.169-3.49l-1.619-1.174c-1.023 1.411-1.55 2.974-1.55 4.665h2zm1.169-3.49c.783-1.08 1.908-1.952 3.425-2.596l-.781-1.841c-1.796.762-3.233 1.843-4.263 3.263l1.619 1.174zm3.432-2.6c1.514-.657 3.236-.995 5.18-.995v-2c-2.18 0-4.177.38-5.976 1.16l.796 1.835zm5.18-.995c2.958 0 5.178.744 6.777 2.124l1.307-1.514c-2.058-1.776-4.791-2.61-8.084-2.61v2zm6.784 2.13c1.579 1.338 2.412 3.24 2.412 5.846h2c0-3.08-1.011-5.585-3.119-7.372l-1.293 1.526zm2.412 5.846v10.993h2V19.148h-2zm0 11c.016 2.466.356 4.478 1.125 5.923l1.766-.939c-.544-1.023-.876-2.652-.891-4.998l-2 .013zm1.008 5.454V36h2v-.398h-2zm1-.602h-6.844v2h6.844v-2zm-12.446-2.71a6.915 6.915 0 003.226-.77l-.92-1.775a4.92 4.92 0 01-2.306.544v2zm3.239-.776c.994-.534 1.771-1.267 2.281-2.21l-1.758-.952c-.302.558-.776 1.027-1.469 1.4l.946 1.762zm2.402-2.686v-4.36h-2v4.36h2zm-1-5.36h-2.531v2h2.531v-2zm-2.531 0c-1.787 0-3.308.305-4.441 1.041-1.186.77-1.834 1.939-1.969 3.382l1.991.186c.084-.9.447-1.488 1.067-1.89.672-.437 1.748-.718 3.352-.718v-2zm-6.413 4.458l-.023.398 1.996.117.024-.398-1.997-.117zm-.025.457c0 1.109.404 2.076 1.213 2.821l1.355-1.47c-.378-.349-.568-.773-.568-1.351h-2zm1.213 2.821c.826.76 1.905 1.085 3.115 1.085v-2c-.852 0-1.398-.222-1.76-.556l-1.355 1.471zM210.945 36v1h1v-1h-1zm-6.797 0h-1v1h1v-1zm0-9.75h1v-1h-1v1zm-8.414 0v-1h-1v1h1zm0 9.75v1h1v-1h-1zm-6.773 0h-1v1h1v-1zm0-25.36v-1h-1v1h1zm6.773 0h1v-1h-1v1zm0 10.172h-1v1h1v-1zm8.414 0v1h1v-1h-1zm0-10.171v-1h-1v1h1zm6.797 0h1v-1h-1v1zm0 24.359h-6.797v2h6.797v-2zm-5.797 1v-9.75h-2V36h2zm-1-10.75h-8.414v2h8.414v-2zm-9.414 1V36h2v-9.75h-2zm1 8.75h-6.773v2h6.773v-2zm-5.773 1V10.64h-2V36h2zm-1-24.36h6.773v-2h-6.773v2zm5.773-1v10.172h2v-10.17h-2zm1 11.172h8.414v-2h-8.414v2zm9.414-1v-10.17h-2v10.171h2zm-1-9.171h6.797v-2h-6.797v2zm5.797-1V36h2V10.64h-2zm21.532 0v-1h-.595l-.284.523.879.477zm6.773 0h1v-1h-1v1zm0 25.359v1h1v-1h-1zm-6.773 0h-1v1h1v-1zm0-15.656h1l-1.88-.477.88.477zM222.992 36v1h.596l.283-.523-.879-.477zm-6.797 0h-1v1h1v-1zm0-25.36v-1h-1v1h1zm6.797 0h1v-1h-1v1zm0 15.633h-1l1.879.477-.879-.477zm8.485-14.632h6.773v-2h-6.773v2zm5.773-1V36h2V10.64h-2zm1 24.359h-6.773v2h6.773v-2zm-5.773 1V20.344h-2V36h2zm-1.88-16.133l-8.484 15.656 1.758.953 8.485-15.656-1.759-.953zM222.992 35h-6.797v2h6.797v-2zm-5.797 1V10.64h-2V36h2zm-1-24.36h6.797v-2h-6.797v2zm5.797-1v15.633h2V10.641h-2zm1.879 16.11l8.484-15.632-1.757-.954-8.485 15.632 1.758.954zm34.84-16.11v-1h-.595l-.284.524.879.477zm6.773 0h1v-1h-1v1zm0 25.36v1h1v-1h-1zm-6.773 0h-1v1h1v-1zm0-15.656h1l-1.879-.477.879.477zM250.227 36v1h.595l.284-.523-.879-.477zm-6.797 0h-1v1h1v-1zm0-25.36v-1h-1v1h1zm6.797 0h1v-1h-1v1zm0 15.633h-1l1.878.477-.878-.477zm8.484-14.632h6.773v-2h-6.773v2zm5.773-1V36h2V10.64h-2zm1 24.359h-6.773v2h6.773v-2zm-5.773 1V20.344h-2V36h2zm-1.879-16.133l-8.485 15.656 1.759.953 8.484-15.656-1.758-.953zM250.227 35h-6.797v2h6.797v-2zm-5.797 1V10.64h-2V36h2zm-1-24.36h6.797v-2h-6.797v2zm5.797-1v15.633h2V10.641h-2zm1.878 16.11l8.485-15.632-1.758-.954-8.484 15.632 1.757.954z" fill="#74576D" fill-opacity=".1"/></svg>