<svg width="376" height="47" fill="none" xmlns="http://www.w3.org/2000/svg"><path d="M12.18 22.055l.846-.534-.294-.466h-.552v1zm-4.055 0v-1h-1v1h1zm0 13.945v1h1v-1h-1zm-7.031 0h-1v1h1v-1zm0-34.125v-1h-1v1h1zm7.031 0h1v-1h-1v1zm0 13.664h-1v1h1v-1zm3.21 0v1h.562l.292-.479-.853-.52zM19.68 1.875v-1h-.561l-.293.479.854.521zm8.578 0l.838.546L30.103.875h-1.845v1zM17.734 18.023l-.837-.546-.355.544.353.546.84-.544zM29.36 36v1h1.838l-.998-1.543-.84.543zm-8.39 0l-.846.533.294.467h.552v-1zm-8.79-14.945H8.126v2h4.055v-2zm-5.054 1V36h2V22.055h-2zm1 12.945H1.094v2h7.031v-2zm-6.031 1V1.875h-2V36h2zm-1-33.125h7.031v-2H1.094v2zm6.031-1v13.664h2V1.875h-2zm1 14.664h3.21v-2h-3.21v2zm4.064-.479l8.344-13.664-1.707-1.042-8.344 13.664 1.707 1.042zm7.49-13.185h8.579v-2H19.68v2zm7.741-1.546L16.897 17.477l1.675 1.092L29.096 2.421 27.42 1.329zM16.895 18.567L28.52 36.543l1.68-1.086L18.573 17.48l-1.68 1.087zM29.359 35h-8.39v2h8.39v-2zm-7.544.467l-8.79-13.945-1.691 1.066 8.789 13.945 1.692-1.066zM46.328 36l-.89.456.28.544h.61v-1zm-.68-2.273l.989-.154-.324-2.084-1.409 1.57.744.668zm-12.586.586l-.662.748.004.004.658-.752zm.54-11.626l-.584-.812-.003.003.587.81zm8.648-2.18v-1h-.004l.004 1zm3.117 0v1h1v-1h-1zm-.914-4.265l-.764.645.008.01.756-.655zm-5.531-.234l-.64-.768-.01.007.65.76zm-.961 2.25v1h1v-1h-1zm-6.773 0h-1v1h1v-1zm5.203-7.008l.39.92.008-.003-.398-.917zm13.007 1.29l-.653.756.007.006.646-.763zm2.766 17.6h-1v.007l1-.006zm1.008 5.462h1v-.25l-.117-.22-.883.47zm0 .398v1h1v-1h-1zm-9.68-5.367l.46.888.007-.004.006-.003-.473-.881zm1.875-1.805l.88.476.12-.222v-.254h-1zm0-4.36h1v-1h-1v1zm-7.945 3.516l-.996-.093-.001.018-.001.017.998.058zm-.024.399l-.998-.059-.002.03v.029h1zm9.82 7.16c-.25-.487-.452-1.136-.581-1.97l-1.977.307c.152.978.404 1.846.778 2.576l1.78-.912zm-2.314-2.484c-1.437 1.6-3.291 2.41-5.654 2.41v2c2.887 0 5.298-1.02 7.143-3.075l-1.489-1.335zm-5.654 2.41c-2.278 0-4.096-.653-5.529-1.909l-1.317 1.505c1.848 1.62 4.155 2.404 6.846 2.404v-2zm-5.525-1.906c-1.408-1.245-2.1-2.784-2.1-4.688h-2c0 2.471.933 4.557 2.775 6.187l1.325-1.498zm-2.1-4.688c0-2.403.866-4.148 2.563-5.378l-1.173-1.62c-2.272 1.646-3.39 4.026-3.39 6.998h2zm2.56-5.375c1.763-1.268 4.408-1.977 8.07-1.992l-.01-2c-3.87.016-6.99.76-9.227 2.367l1.167 1.625zm8.065-1.992h3.117v-2H42.25v2zm4.117-1v-1.453h-2v1.453h2zm0-1.453c0-1.348-.354-2.54-1.158-3.468l-1.512 1.31c.415.478.67 1.162.67 2.158h2zm-1.15-3.458c-.852-1.009-2.134-1.41-3.6-1.41v2c1.128 0 1.737.303 2.072.7l1.528-1.29zm-3.6-1.41c-1.295 0-2.447.312-3.335 1.053l1.28 1.536c.424-.353 1.07-.588 2.055-.588v-2zm-3.344 1.06c-.894.763-1.312 1.808-1.312 3.01h2c0-.703.223-1.158.61-1.489l-1.298-1.52zm-.312 2.01h-6.773v2h6.773v-2zm-5.773 1c0-1.246.38-2.402 1.168-3.49l-1.619-1.174c-1.023 1.411-1.55 2.974-1.55 4.665h2zm1.168-3.49c.783-1.08 1.908-1.952 3.425-2.596L36 10.33c-1.796.762-3.233 1.843-4.263 3.263l1.62 1.174zm3.433-2.6c1.514-.657 3.235-.995 5.18-.995v-2c-2.18 0-4.178.38-5.977 1.16l.797 1.835zm5.18-.995c2.957 0 5.178.744 6.776 2.124l1.307-1.514c-2.058-1.776-4.79-2.61-8.083-2.61v2zm6.783 2.13c1.579 1.338 2.412 3.24 2.412 5.846h2c0-3.08-1.01-5.585-3.119-7.372l-1.293 1.526zm2.412 5.846v10.993h2V19.148h-2zm0 11c.016 2.466.356 4.478 1.125 5.923l1.766-.939c-.544-1.023-.876-2.652-.891-4.998l-2 .013zm1.008 5.454V36h2v-.398h-2zm1-.602h-6.844v2h6.844v-2zm-12.445-2.71a6.917 6.917 0 003.226-.77l-.921-1.775a4.92 4.92 0 01-2.305.544v2zm3.238-.776c.994-.534 1.771-1.267 2.281-2.21l-1.758-.952c-.302.558-.775 1.027-1.469 1.4l.946 1.762zm2.402-2.686v-4.36h-2v4.36h2zm-1-5.36h-2.531v2h2.531v-2zm-2.531 0c-1.787 0-3.308.305-4.441 1.041-1.185.77-1.834 1.939-1.969 3.382l1.991.186c.085-.9.448-1.488 1.067-1.89.672-.437 1.748-.718 3.352-.718v-2zm-6.412 4.458l-.024.398 1.997.117.023-.398-1.996-.117zm-.026.457c0 1.109.404 2.076 1.214 2.821l1.355-1.47c-.378-.349-.569-.773-.569-1.351h-2zm1.214 2.821c.825.76 1.904 1.085 3.115 1.085v-2c-.853 0-1.398-.222-1.76-.556l-1.355 1.471zm40.427-15.126v1h1v-1h-1zm-8.133 0v-1h-1v1h1zm0 19.922v1h1v-1h-1zm-6.797 0h-1v1h1v-1zm0-19.922h1v-1h-1v1zm-7.992 0h-1v1h1v-1zm0-5.437v-1h-1v1h1zm22.922 0h1v-1h-1v1zm0 4.437h-8.133v2h8.133v-2zm-9.133 1V36h2V16.078h-2zm1 18.922H63.11v2h6.797v-2zm-5.797 1V16.078h-2V36h2zm-1-20.922h-7.992v2h7.992v-2zm-6.992 1v-5.437h-2v5.437h2zm-1-4.437H78.04v-2H55.117v2zm21.922-1v5.437h2v-5.437h-2zM95.781 36l-.89.456.28.544h.61v-1zm-.68-2.273l.989-.154-.324-2.084-1.409 1.57.745.668zm-12.585.586l-.663.748.004.004.659-.752zm.539-11.626l-.584-.812-.003.003.587.81zm8.648-2.18v-1H91.7l.004 1zm3.117 0v1h1v-1h-1zm-.914-4.265l-.764.645.009.01.755-.655zm-5.531-.234l-.64-.768-.01.007.65.76zm-.96 2.25v1h1v-1h-1zm-6.774 0h-1v1h1v-1zm5.203-7.008l.39.92.008-.003-.398-.917zm13.008 1.29l-.654.756.007.006.647-.763zm2.765 17.6h-1v.007l1-.006zm1.008 5.462h1v-.25l-.117-.22-.883.47zm0 .398v1h1v-1h-1zm-9.68-5.367l.46.888.007-.004.006-.003-.473-.881zm1.875-1.805l.88.476.12-.222v-.254h-1zm0-4.36h1v-1h-1v1zm-7.945 3.516l-.996-.093-.001.018-.001.017.998.058zm-.023.399l-.999-.059-.001.03v.029h1zm9.82 7.16c-.251-.487-.453-1.136-.582-1.97l-1.977.307c.152.978.404 1.846.778 2.576l1.78-.912zm-2.315-2.484c-1.436 1.6-3.29 2.41-5.654 2.41v2c2.887 0 5.298-1.02 7.143-3.075l-1.489-1.335zm-5.654 2.41c-2.278 0-4.095-.653-5.528-1.909l-1.318 1.505c1.848 1.62 4.155 2.404 6.846 2.404v-2zm-5.525-1.906c-1.408-1.245-2.1-2.784-2.1-4.688h-2c0 2.471.933 4.557 2.775 6.187l1.325-1.498zm-2.1-4.688c0-2.403.867-4.148 2.563-5.378l-1.173-1.62c-2.272 1.646-3.39 4.026-3.39 6.998h2zm2.56-5.375c1.763-1.268 4.408-1.977 8.07-1.992l-.009-2c-3.87.016-6.991.76-9.228 2.367l1.167 1.625zm8.065-1.992h3.117v-2h-3.117v2zm4.117-1v-1.453h-2v1.453h2zm0-1.453c0-1.348-.353-2.54-1.158-3.468l-1.511 1.31c.414.478.67 1.162.67 2.158h2zm-1.15-3.458c-.852-1.009-2.134-1.41-3.6-1.41v2c1.128 0 1.737.303 2.072.7l1.528-1.29zm-3.6-1.41c-1.295 0-2.447.312-3.335 1.053l1.28 1.536c.424-.353 1.07-.588 2.055-.588v-2zm-3.344 1.06c-.894.763-1.312 1.808-1.312 3.01h2c0-.703.223-1.158.61-1.489l-1.298-1.52zm-.312 2.01h-6.773v2h6.773v-2zm-5.773 1c0-1.246.38-2.402 1.169-3.49l-1.62-1.174c-1.023 1.411-1.55 2.974-1.55 4.665h2zm1.169-3.49c.783-1.08 1.907-1.952 3.424-2.596l-.781-1.841c-1.796.762-3.233 1.843-4.263 3.263l1.62 1.174zm3.432-2.6c1.514-.657 3.235-.995 5.18-.995v-2c-2.18 0-4.178.38-5.976 1.16l.796 1.835zm5.18-.995c2.957 0 5.178.744 6.776 2.124l1.307-1.514c-2.058-1.776-4.79-2.61-8.083-2.61v2zm6.783 2.13c1.58 1.338 2.412 3.24 2.412 5.846h2c0-3.08-1.011-5.585-3.119-7.372l-1.293 1.526zm2.412 5.846v10.993h2V19.148h-2zm0 11c.016 2.466.357 4.478 1.125 5.923l1.766-.939c-.544-1.023-.876-2.652-.891-4.998l-2 .013zm1.008 5.454V36h2v-.398h-2zm1-.602h-6.844v2h6.844v-2zM90.18 32.29a6.917 6.917 0 003.226-.77l-.921-1.775a4.92 4.92 0 01-2.305.544v2zm3.238-.776c.994-.534 1.771-1.267 2.282-2.21l-1.759-.952c-.302.558-.775 1.027-1.469 1.4l.946 1.762zm2.402-2.686v-4.36h-2v4.36h2zm-1-5.36h-2.53v2h2.53v-2zm-2.53 0c-1.787 0-3.31.305-4.442 1.041-1.185.77-1.834 1.939-1.969 3.382l1.992.186c.084-.9.447-1.488 1.066-1.89.672-.437 1.748-.718 3.352-.718v-2zm-6.413 4.458l-.024.398 1.997.117.023-.398-1.996-.117zm-.025.457c0 1.109.403 2.076 1.213 2.821l1.355-1.47c-.378-.349-.568-.773-.568-1.351h-2zm1.213 2.821c.825.76 1.905 1.085 3.115 1.085v-2c-.853 0-1.398-.222-1.76-.556l-1.355 1.471zm41.81-20.563h1v-1h-1v1zm0 25.359v1h1v-1h-1zm-6.773 0h-1v1h1v-1zm0-19.875h1v-1h-1v1zm-5.977 0v-1h-.948l-.051.946.999.054zm-.422 7.828l.998.064.001-.01-.999-.054zM107.102 36v1h.017l-.017-1zm-2.297 0l-1 .013.012.987h.988v-1zm-.071-5.508l-.083-.996-.928.077.011.932 1-.013zm.844-.07l-.077-.997h-.006l.083.997zm3.727-9.024l-.999-.043.999.043zm.468-10.757v-1h-.957l-.042.956.999.044zm18.102 0V36h2V10.64h-2zm1 24.359h-6.773v2h6.773v-2zm-5.773 1V16.125h-2V36h2zm-1-20.875h-5.977v2h5.977v-2zm-6.976.946l-.421 7.828 1.997.108.422-7.828-1.998-.108zm-.421 7.819c-.262 4.11-1.065 6.92-2.274 8.595l1.622 1.17c1.542-2.137 2.379-5.406 2.648-9.638l-1.996-.127zm-2.274 8.595c-1.16 1.608-2.887 2.473-5.347 2.515l.035 2c2.977-.051 5.344-1.14 6.934-3.345l-1.622-1.17zM107.102 35h-2.297v2h2.297v-2zm-1.297.987l-.071-5.508-2 .026.071 5.508 2-.026zm-.988-4.498l.844-.07-.166-1.994-.844.07.166 1.994zm.838-.07a3.795 3.795 0 002.133-.828c.605-.489 1.056-1.155 1.384-1.94l-1.844-.771c-.235.56-.51.924-.796 1.154a1.799 1.799 0 01-1.031.39l.154 1.995zm3.517-2.767c.637-1.521.991-3.966 1.132-7.21l-1.998-.087c-.141 3.225-.49 5.358-.978 6.524l1.844.773zm1.132-7.21l.468-10.758-1.998-.087-.468 10.758 1.998.087zm-.531-9.801h19.102v-2h-19.102v2zm28.899.148l-.508-.861-.003.002.511.86zm14.719 1.524l-.697.717.003.002.694-.72zm3.632 8.53l1-.026v-.021l-.002-.022-.998.07zm.047 1.735h1v-.027l-1 .027zm-3.258 9.375l.734.68.002-.003-.736-.677zm-17.507 0l-.734.68.003.002.731-.682zm4.875-3.844l-.817.578.004.005.813-.583zm7.734.024l.805.593.003-.004-.808-.59zm-7.734-11.531l.816.577.003-.005-.819-.572zm-7.133 5.484c0-2.385.458-4.473 1.35-6.285l-1.794-.883c-1.046 2.125-1.556 4.522-1.556 7.168h2zm1.35-6.285c.887-1.802 2.147-3.177 3.786-4.152l-1.022-1.72c-1.986 1.182-3.508 2.854-4.558 4.989l1.794.883zm3.783-4.15c1.654-.976 3.591-1.48 5.843-1.48v-2c-2.56 0-4.857.576-6.859 1.757l1.016 1.722zm5.843-1.48c3.201 0 5.728.972 7.671 2.859l1.393-1.435c-2.369-2.3-5.421-3.423-9.064-3.423v2zm7.674 2.861c1.96 1.89 3.093 4.484 3.329 7.881l1.995-.139c-.264-3.79-1.553-6.884-3.936-9.181l-1.388 1.44zm3.327 7.839l.047 1.734 1.999-.054-.047-1.734-1.999.054zm.046 1.707c0 3.696-1.026 6.56-2.993 8.698l1.471 1.354c2.377-2.581 3.522-5.967 3.522-10.052h-2zm-2.991 8.695c-1.955 2.11-4.587 3.196-8.009 3.196v2c3.891 0 7.087-1.258 9.476-3.836l-1.467-1.36zm-8.009 3.196c-3.422 0-6.063-1.086-8.034-3.198l-1.462 1.364c2.404 2.576 5.606 3.834 9.496 3.834v-2zm-8.032-3.196c-1.959-2.114-2.991-5.035-2.991-8.882h-2c0 4.214 1.139 7.668 3.524 10.242l1.467-1.36zm-2.991-8.882v-.305h-2v.305h2zm4.773.187c0 2.51.469 4.59 1.543 6.109l1.633-1.155c-.738-1.044-1.176-2.651-1.176-4.954h-2zm1.547 6.114c1.111 1.552 2.725 2.316 4.703 2.316v-2c-1.396 0-2.377-.502-3.077-1.48l-1.626 1.164zm4.703 2.316c1.938 0 3.526-.76 4.649-2.282l-1.61-1.187c-.721.978-1.695 1.469-3.039 1.469v2zm4.652-2.286c1.111-1.525 1.575-3.802 1.575-6.636h-2c0 2.697-.458 4.451-1.191 5.458l1.616 1.178zm1.575-6.636c0-2.472-.48-4.534-1.568-6.064l-1.63 1.159c.756 1.064 1.198 2.658 1.198 4.905h2zm-1.568-6.064c-1.12-1.576-2.729-2.366-4.706-2.366v2c1.368 0 2.353.507 3.076 1.525l1.63-1.159zm-4.706-2.366c-1.964 0-3.56.794-4.663 2.373l1.639 1.145c.709-1.014 1.677-1.518 3.024-1.518v-2zm-4.66 2.368c-1.084 1.534-1.543 3.777-1.543 6.554h2c0-2.63.448-4.37 1.176-5.399l-1.633-1.155zm38.153-.899v1h1v-1h-1zm-10.5 0v-1h-1v1h1zm0 19.875v1h1v-1h-1zm-6.774 0h-1v1h1v-1zm0-25.36v-1h-1v1h1zm17.274 0h1v-1h-1v1zm0 4.485h-10.5v2h10.5v-2zm-11.5 1V36h2V16.125h-2zm1 18.875h-6.774v2h6.774v-2zm-5.774 1V10.64h-2V36h2zm-1-24.36h17.274v-2h-17.274v2zm16.274-1v5.485h2v-5.484h-2zm36.836 5.438v1h1v-1h-1zm-8.133 0v-1h-1v1h1zm0 19.922v1h1v-1h-1zm-6.797 0h-1v1h1v-1zm0-19.922h1v-1h-1v1zm-7.992 0h-1v1h1v-1zm0-5.437v-1h-1v1h1zm22.922 0h1v-1h-1v1zm0 4.437h-8.133v2h8.133v-2zm-9.133 1V36h2V16.078h-2zm1 18.922h-6.797v2h6.797v-2zm-5.797 1V16.078h-2V36h2zm-1-20.922h-7.992v2h7.992v-2zm-6.992 1v-5.437h-2v5.437h2zm-1-4.437h22.922v-2H191.43v2zm21.922-1v5.437h2v-5.437h-2zm8.289 1.148l-.508-.861-.004.002.512.86zm14.718 1.524l-.696.717.002.002.694-.72zm3.633 8.53l1-.026-.001-.021-.001-.022-.998.07zm.047 1.735h1v-.027l-1 .027zm-3.258 9.375l.734.68.002-.003-.736-.677zm-17.508 0l-.733.68.002.002.731-.682zm4.875-3.844l-.816.578.003.005.813-.583zm7.735.024l.805.593.003-.004-.808-.59zm-7.735-11.531l.817.577.003-.005-.82-.572zm-7.132 5.484c0-2.385.458-4.473 1.35-6.285l-1.795-.883c-1.045 2.125-1.555 4.522-1.555 7.168h2zm1.35-6.285c.887-1.802 2.147-3.177 3.786-4.152l-1.023-1.72c-1.985 1.182-3.507 2.854-4.558 4.989l1.795.883zm3.783-4.15c1.654-.976 3.591-1.48 5.843-1.48v-2c-2.56 0-4.858.576-6.859 1.757l1.016 1.722zm5.843-1.48c3.201 0 5.727.972 7.671 2.859l1.393-1.435c-2.369-2.3-5.421-3.423-9.064-3.423v2zm7.673 2.861c1.961 1.89 3.093 4.484 3.33 7.881l1.995-.139c-.264-3.79-1.553-6.884-3.937-9.181l-1.388 1.44zm3.328 7.839l.046 1.734 2-.054-.047-1.734-1.999.054zm.046 1.707c0 3.696-1.026 6.56-2.993 8.698l1.471 1.354c2.376-2.581 3.522-5.967 3.522-10.052h-2zm-2.991 8.695c-1.955 2.11-4.587 3.196-8.009 3.196v2c3.891 0 7.087-1.258 9.476-3.836l-1.467-1.36zm-8.009 3.196c-3.422 0-6.063-1.086-8.035-3.198l-1.462 1.364c2.404 2.576 5.606 3.834 9.497 3.834v-2zm-8.032-3.196c-1.959-2.114-2.991-5.035-2.991-8.882h-2c0 4.214 1.139 7.668 3.524 10.242l1.467-1.36zm-2.991-8.882v-.305h-2v.305h2zm4.773.187c0 2.51.469 4.59 1.543 6.109l1.633-1.155c-.739-1.044-1.176-2.651-1.176-4.954h-2zm1.546 6.114c1.112 1.552 2.726 2.316 4.704 2.316v-2c-1.397 0-2.377-.502-3.078-1.48l-1.626 1.164zm4.704 2.316c1.937 0 3.526-.76 4.649-2.282l-1.61-1.187c-.721.978-1.695 1.469-3.039 1.469v2zm4.652-2.286c1.11-1.525 1.575-3.802 1.575-6.636h-2c0 2.697-.458 4.451-1.191 5.458l1.616 1.178zm1.575-6.636c0-2.472-.481-4.534-1.568-6.064l-1.63 1.159c.756 1.064 1.198 2.658 1.198 4.905h2zm-1.568-6.064c-1.121-1.576-2.73-2.366-4.706-2.366v2c1.368 0 2.352.507 3.076 1.525l1.63-1.159zm-4.706-2.366c-1.965 0-3.56.794-4.663 2.373l1.639 1.145c.709-1.014 1.676-1.518 3.024-1.518v-2zm-4.66 2.368c-1.085 1.534-1.543 3.777-1.543 6.554h2c0-2.63.448-4.37 1.176-5.399l-1.633-1.155zM244.656 36h-1v1h1v-1zm0-25.36v-1h-1v1h1zm20.133 10.243l-.768-.64h-.001l.769.64zm-3.375 2.133l-.319-.948-3.618 1.219 3.751.711.186-.982zm4.266 2.039l-.702.712.005.006.006.005.691-.723zm-1.102 9.093l-.569-.822-.004.003.573.82zm-13.148-8.671v-1h-1v1h1zm0 5.109h-1v1h1v-1zm5.625-5.11l.013-1h-.013v1zm-5.625-4.546h-1v1h1v-1zm4.195 0v1h.013l-.013-1zm2.578-4.266l-.521.854.01.005.511-.859zm-6.773-.586v-1h-1v1h1zM245.656 36V10.64h-2V36h2zm-1-24.36h10.594v-2h-10.594v2zm10.594 0c3.359 0 5.782.597 7.394 1.663l1.103-1.669c-2.076-1.371-4.95-1.993-8.497-1.993v2zm7.394 1.663c1.553 1.026 2.317 2.457 2.317 4.416h2c0-2.604-1.08-4.674-3.214-6.085l-1.103 1.669zm2.317 4.416c0 .927-.302 1.758-.94 2.524l1.536 1.28c.925-1.11 1.404-2.388 1.404-3.804h-2zm-.941 2.525c-.616.742-1.564 1.365-2.925 1.824l.638 1.895c1.608-.541 2.91-1.34 3.825-2.441l-1.538-1.278zm-2.792 3.754c1.671.317 2.894.926 3.75 1.77l1.403-1.426c-1.206-1.188-2.827-1.938-4.781-2.309l-.372 1.965zm3.761 1.78c.846.808 1.261 1.78 1.261 2.98h2c0-1.738-.632-3.235-1.88-4.426l-1.381 1.446zm1.261 2.98c0 2.065-.757 3.54-2.241 4.569l1.139 1.643c2.077-1.44 3.102-3.559 3.102-6.212h-2zm-2.245 4.57c-1.527 1.068-3.86 1.672-7.138 1.672v2c3.473 0 6.28-.63 8.284-2.032l-1.146-1.64zM256.867 35h-12.211v2h12.211v-2zm-6.437-9.523v5.109h2v-5.11h-2zm1 6.109h5.461v-2h-5.461v2zm5.461 0c1.281 0 2.42-.218 3.262-.807.908-.635 1.324-1.594 1.324-2.7h-2c0 .564-.182.86-.47 1.06-.353.247-1.007.447-2.116.447v2zm4.586-3.508c0-1.098-.383-2.064-1.251-2.724-.815-.62-1.92-.86-3.158-.877l-.027 2c1.044.014 1.649.222 1.975.47.273.207.461.526.461 1.131h2zm-4.422-3.601h-5.625v2h5.625v-2zm-5.625-2.547h4.195v-2h-4.195v2zm4.208 0c1.262-.017 2.375-.225 3.201-.758.9-.58 1.349-1.474 1.349-2.54h-2c0 .436-.145.674-.433.86-.362.233-1.03.423-2.143.438l.026 2zm4.55-3.297c0-1.189-.447-2.217-1.473-2.828l-1.023 1.718c.286.17.496.455.496 1.11h2zm-1.464-2.823c-.877-.534-2.085-.732-3.474-.732v2c1.267 0 2.028.193 2.433.44l1.041-1.708zm-3.474-.732h-3.82v2h3.82v-2zm-4.82 1v4.852h2v-4.852h-2zM286.094 36l-.89.456.279.544h.611v-1zm-.68-2.273l.988-.154-.323-2.084-1.409 1.57.744.668zm-12.586.586l-.662.748.003.004.659-.752zm.539-11.626l-.583-.812-.003.003.586.81zm8.649-2.18v-1h-.005l.005 1zm3.117 0v1h1v-1h-1zm-.914-4.265l-.764.645.008.01.756-.655zm-5.531-.234l-.641-.768-.009.007.65.76zm-.961 2.25v1h1v-1h-1zm-6.774 0h-1v1h1v-1zm5.203-7.008l.391.92.007-.003-.398-.917zm13.008 1.29l-.653.756.007.006.646-.763zm2.766 17.6h-1v.007l1-.006zm1.008 5.462h1v-.25l-.118-.22-.882.47zm0 .398v1h1v-1h-1zm-9.68-5.367l.46.888.007-.004.006-.003-.473-.881zm1.875-1.805l.879.476.121-.222v-.254h-1zm0-4.36h1v-1h-1v1zm-7.945 3.516l-.996-.093-.002.018-.001.017.999.058zm-.024.399l-.998-.059-.002.03v.029h1zm9.82 7.16c-.251-.487-.452-1.136-.582-1.97l-1.976.307c.152.978.403 1.846.778 2.576l1.78-.912zm-2.314-2.484c-1.437 1.6-3.291 2.41-5.654 2.41v2c2.887 0 5.298-1.02 7.142-3.075l-1.488-1.335zm-5.654 2.41c-2.278 0-4.096-.653-5.529-1.909l-1.318 1.505c1.848 1.62 4.156 2.404 6.847 2.404v-2zm-5.525-1.906c-1.409-1.245-2.1-2.784-2.1-4.688h-2c0 2.471.933 4.557 2.775 6.187l1.325-1.498zm-2.1-4.688c0-2.403.866-4.148 2.563-5.378l-1.173-1.62c-2.272 1.646-3.39 4.026-3.39 6.998h2zm2.56-5.375c1.763-1.268 4.408-1.977 8.069-1.992l-.009-2c-3.87.016-6.991.76-9.227 2.367l1.167 1.625zm8.065-1.992h3.117v-2h-3.117v2zm4.117-1v-1.453h-2v1.453h2zm0-1.453c0-1.348-.354-2.54-1.159-3.468l-1.511 1.31c.414.478.67 1.162.67 2.158h2zm-1.15-3.458c-.852-1.009-2.134-1.41-3.6-1.41v2c1.128 0 1.736.303 2.072.7l1.528-1.29zm-3.6-1.41c-1.296 0-2.447.312-3.336 1.053l1.281 1.536c.424-.353 1.069-.588 2.055-.588v-2zm-3.345 1.06c-.894.763-1.311 1.808-1.311 3.01h2c0-.703.222-1.158.61-1.489l-1.299-1.52zm-.311 2.01h-6.774v2h6.774v-2zm-5.774 1c0-1.246.38-2.402 1.169-3.49l-1.619-1.174c-1.023 1.411-1.55 2.974-1.55 4.665h2zm1.169-3.49c.783-1.08 1.908-1.952 3.425-2.596l-.782-1.841c-1.795.762-3.233 1.843-4.262 3.263l1.619 1.174zm3.432-2.6c1.514-.657 3.235-.995 5.18-.995v-2c-2.18 0-4.177.38-5.976 1.16l.796 1.835zm5.18-.995c2.958 0 5.178.744 6.777 2.124l1.307-1.514c-2.058-1.776-4.791-2.61-8.084-2.61v2zm6.784 2.13c1.579 1.338 2.412 3.24 2.412 5.846h2c0-3.08-1.011-5.585-3.119-7.372l-1.293 1.526zm2.412 5.846v10.993h2V19.148h-2zm0 11c.016 2.466.356 4.478 1.125 5.923l1.765-.939c-.544-1.023-.875-2.652-.89-4.998l-2 .013zm1.008 5.454V36h2v-.398h-2zm1-.602h-6.844v2h6.844v-2zm-12.446-2.71a6.915 6.915 0 003.226-.77l-.921-1.775a4.917 4.917 0 01-2.305.544v2zm3.239-.776c.994-.534 1.771-1.267 2.281-2.21l-1.758-.952c-.303.558-.776 1.027-1.469 1.4l.946 1.762zm2.402-2.686v-4.36h-2v4.36h2zm-1-5.36h-2.531v2h2.531v-2zm-2.531 0c-1.787 0-3.309.305-4.442 1.041-1.185.77-1.833 1.939-1.968 3.382l1.991.186c.084-.9.447-1.488 1.067-1.89.671-.437 1.747-.718 3.352-.718v-2zm-6.413 4.458l-.023.398 1.996.117.024-.398-1.997-.117zm-.025.457c0 1.109.404 2.076 1.213 2.821l1.355-1.47c-.378-.349-.568-.773-.568-1.351h-2zm1.213 2.821c.826.76 1.905 1.085 3.115 1.085v-2c-.852 0-1.398-.222-1.76-.556l-1.355 1.471zm39.912 1.75l-.798-.603h-.001l.799.602zm-13.383.843l.749-.663-1.749-1.974v2.637h1zm0 11.953v1h1v-1h-1zm-6.773 0h-1v1h1v-1zm0-35.11v-1h-1v1h1zm6.281 0l.996-.093-.086-.906h-.91v1zm.234 2.485l-.995.094.226 2.392 1.538-1.846-.769-.64zm8.274 4.477l-.84.542.005.008.835-.55zm-8.016.515l-.898-.44-.102.208v.232h1zm0 10.383h-1v.234l.104.21.896-.444zm15.055-4.945c0 3.758-.856 6.658-2.47 8.796l1.596 1.205c1.949-2.582 2.874-5.947 2.874-10.001h-2zm-2.471 8.796c-1.57 2.085-3.661 3.118-6.373 3.118v2c3.32 0 6.01-1.312 7.971-3.914l-1.598-1.204zm-6.373 3.118c-2.301 0-4.09-.786-5.462-2.335l-1.497 1.326c1.783 2.013 4.135 3.009 6.959 3.009v-2zm-7.211-1.672V45.75h2V33.797h-2zm1 10.953h-6.773v2h6.773v-2zm-5.773 1V10.64h-2v35.11h2zm-1-34.11h6.281v-2h-6.281v2zm5.285-.905l.235 2.484 1.991-.188-.234-2.484-1.992.188zm1.999 3.03c1.444-1.733 3.299-2.593 5.653-2.593v-2c-2.927 0-5.353 1.108-7.19 3.313l1.537 1.28zm5.653-2.593c2.84 0 4.961 1.03 6.489 3.069l1.6-1.2c-1.94-2.588-4.679-3.87-8.089-3.87v2zm6.489 3.069c1.562 2.081 2.402 5.03 2.402 8.962h2c0-4.193-.894-7.619-2.802-10.162l-1.6 1.2zm2.402 8.962v.352h2v-.352h-2zm-4.773-.14c0-2.458-.436-4.501-1.431-6.011l-1.67 1.1c.693 1.052 1.101 2.649 1.101 4.91h2zm-1.426-6.004c-1.022-1.582-2.558-2.38-4.473-2.38v2c1.273 0 2.159.484 2.793 1.465l1.68-1.085zm-4.473-2.38c-1.187 0-2.261.228-3.175.736-.924.514-1.625 1.282-2.106 2.262l1.796.88c.317-.645.744-1.095 1.282-1.394.546-.304 1.265-.483 2.203-.483v-2zm-5.383 3.438V28.5h2V18.117h-2zm.104 10.827c.494.996 1.202 1.78 2.132 2.307.922.522 2.002.757 3.194.757v-2c-.933 0-1.654-.183-2.209-.497-.546-.31-.99-.78-1.325-1.455l-1.792.888zm5.326 3.064c1.948 0 3.493-.829 4.492-2.465.95-1.557 1.36-3.763 1.36-6.48h-2c0 2.579-.4 4.345-1.067 5.437-.618 1.012-1.498 1.508-2.785 1.508v2zm20.414-20.219l-.508-.861-.003.002.511.86zm14.719 1.524l-.697.717.003.002.694-.72zm3.633 8.53l.999-.026v-.021l-.002-.022-.997.07zm.046 1.735h1v-.027l-1 .027zm-3.257 9.375l.733.68.002-.003-.735-.677zm-17.508 0l-.734.68.003.002.731-.682zm4.875-3.844l-.817.578.004.005.813-.583zm7.734.024l.805.593.004-.004-.809-.59zm-7.734-11.531l.816.577.004-.005-.82-.572zm-7.133 5.484c0-2.385.458-4.473 1.35-6.285l-1.794-.883c-1.046 2.125-1.556 4.522-1.556 7.168h2zm1.35-6.285c.887-1.802 2.147-3.177 3.786-4.152l-1.022-1.72c-1.986 1.182-3.508 2.854-4.558 4.989l1.794.883zm3.783-4.15c1.654-.976 3.592-1.48 5.844-1.48v-2c-2.561 0-4.858.576-6.86 1.757l1.016 1.722zm5.844-1.48c3.2 0 5.727.972 7.67 2.859l1.393-1.435c-2.369-2.3-5.42-3.423-9.063-3.423v2zm7.673 2.861c1.96 1.89 3.093 4.484 3.329 7.881l1.995-.139c-.264-3.79-1.553-6.884-3.936-9.181l-1.388 1.44zm3.327 7.839l.047 1.734 1.999-.054-.047-1.734-1.999.054zm.046 1.707c0 3.696-1.026 6.56-2.993 8.698l1.471 1.354c2.377-2.581 3.522-5.967 3.522-10.052h-2zm-2.991 8.695c-1.954 2.11-4.587 3.196-8.009 3.196v2c3.891 0 7.087-1.258 9.476-3.836l-1.467-1.36zm-8.009 3.196c-3.421 0-6.063-1.086-8.034-3.198l-1.462 1.364c2.404 2.576 5.606 3.834 9.496 3.834v-2zm-8.032-3.196c-1.959-2.114-2.991-5.035-2.991-8.882h-2c0 4.214 1.14 7.668 3.524 10.242l1.467-1.36zm-2.991-8.882v-.305h-2v.305h2zm4.773.187c0 2.51.469 4.59 1.543 6.109l1.633-1.155c-.738-1.044-1.176-2.651-1.176-4.954h-2zm1.547 6.114c1.112 1.552 2.725 2.316 4.703 2.316v-2c-1.396 0-2.376-.502-3.077-1.48l-1.626 1.164zm4.703 2.316c1.938 0 3.527-.76 4.649-2.282l-1.61-1.187c-.721.978-1.695 1.469-3.039 1.469v2zm4.653-2.286c1.11-1.525 1.574-3.802 1.574-6.636h-2c0 2.697-.458 4.451-1.191 5.458l1.617 1.178zm1.574-6.636c0-2.472-.48-4.534-1.568-6.064l-1.63 1.159c.756 1.064 1.198 2.658 1.198 4.905h2zm-1.568-6.064c-1.12-1.576-2.729-2.366-4.705-2.366v2c1.367 0 2.352.507 3.075 1.525l1.63-1.159zm-4.705-2.366c-1.965 0-3.56.794-4.664 2.373l1.64 1.145c.709-1.014 1.676-1.518 3.024-1.518v-2zm-4.661 2.368c-1.084 1.534-1.543 3.777-1.543 6.554h2c0-2.63.448-4.37 1.176-5.399l-1.633-1.155zM351.766 36h-1v1h1v-1zm0-25.36v-1h-1v1h1zm20.132 10.243l-.768-.64h-.001l.769.64zm-3.375 2.133l-.319-.948-3.618 1.219 3.751.711.186-.982zm4.266 2.039l-.702.712.006.006.005.005.691-.723zm-1.101 9.093l-.57-.822-.003.003.573.82zm-13.149-8.671v-1h-1v1h1zm0 5.109h-1v1h1v-1zm5.625-5.11l.014-1h-.014v1zm-5.625-4.546h-1v1h1v-1zm4.195 0v1h.014l-.014-1zm2.578-4.266l-.52.854.009.005.511-.859zm-6.773-.586v-1h-1v1h1zM352.766 36V10.64h-2V36h2zm-1-24.36h10.593v-2h-10.593v2zm10.593 0c3.359 0 5.782.597 7.394 1.663l1.103-1.669c-2.075-1.371-4.949-1.993-8.497-1.993v2zm7.394 1.663c1.553 1.026 2.317 2.457 2.317 4.416h2c0-2.604-1.079-4.674-3.214-6.085l-1.103 1.669zm2.317 4.416c0 .927-.302 1.758-.94 2.524l1.537 1.28c.924-1.11 1.403-2.388 1.403-3.804h-2zm-.941 2.525c-.616.742-1.563 1.365-2.925 1.824l.639 1.895c1.607-.541 2.909-1.34 3.825-2.441l-1.539-1.278zm-2.792 3.754c1.671.317 2.895.926 3.75 1.77l1.404-1.426c-1.207-1.188-2.827-1.938-4.781-2.309l-.373 1.965zm3.761 1.78c.846.808 1.261 1.78 1.261 2.98h2c0-1.738-.632-3.235-1.879-4.426l-1.382 1.446zm1.261 2.98c0 2.065-.756 3.54-2.241 4.569l1.139 1.643c2.078-1.44 3.102-3.559 3.102-6.212h-2zm-2.244 4.57c-1.527 1.068-3.861 1.672-7.138 1.672v2c3.472 0 6.279-.63 8.283-2.032l-1.145-1.64zM363.977 35h-12.211v2h12.211v-2zm-6.438-9.523v5.109h2v-5.11h-2zm1 6.109H364v-2h-5.461v2zm5.461 0c1.281 0 2.42-.218 3.263-.807.907-.635 1.323-1.594 1.323-2.7h-2c0 .564-.182.86-.47 1.06-.353.247-1.007.447-2.116.447v2zm4.586-3.508c0-1.098-.383-2.064-1.25-2.724-.815-.62-1.921-.86-3.158-.877l-.028 2c1.044.014 1.65.222 1.975.47.273.207.461.526.461 1.131h2zm-4.422-3.601h-5.625v2h5.625v-2zm-5.625-2.547h4.195v-2h-4.195v2zm4.209 0c1.261-.017 2.374-.225 3.2-.758.9-.58 1.349-1.474 1.349-2.54h-2c0 .436-.145.674-.433.86-.361.233-1.029.423-2.143.438l.027 2zm4.549-3.297c0-1.189-.447-2.217-1.473-2.828l-1.023 1.718c.286.17.496.455.496 1.11h2zm-1.464-2.823c-.877-.534-2.085-.732-3.474-.732v2c1.268 0 2.028.193 2.433.44l1.041-1.708zm-3.474-.732h-3.82v2h3.82v-2zm-4.82 1v4.852h2v-4.852h-2z" fill="#74576D" fill-opacity=".1"/></svg>