<svg width="185" height="48" fill="none" xmlns="http://www.w3.org/2000/svg"><g filter="url(#filter0_d)"><path d="M19.205 13.168h-1.037V17h-1.125V8.469h1.125v3.761h.879l2.982-3.761h1.4l-3.257 4.136L23.67 17h-1.377l-3.088-3.832zm11.947-4.7V17h-1.125V9.395H26.97l-.153 3.38c-.058 1.133-.175 1.985-.351 2.555-.172.57-.426.99-.762 1.26-.336.265-.785.402-1.348.41h-.369v-.92l.235-.012c.363-.027.642-.144.838-.351.195-.211.343-.545.445-1.002.101-.457.174-1.16.217-2.11l.175-4.136h5.256zm7.424 0h1.125V17h-1.125v-6.574L34.375 17h-1.13V8.469h1.13v6.574l4.201-6.574zm4.63 0l2.788 6.962 2.79-6.961h1.458V17h-1.125v-3.322l.106-3.586L46.422 17h-.861l-2.795-6.89.111 3.568V17h-1.125V8.469h1.453zm13.839 6.305H53.47L52.668 17h-1.16l3.258-8.531h.984L59.014 17h-1.155l-.814-2.227zm-3.235-.925h2.9l-1.452-3.99-1.448 3.99zm11.485-4.453h-2.742V17h-1.12V9.395h-2.736v-.926h6.598v.926zm6.644-.926h1.126V17h-1.126v-6.574L67.74 17h-1.132V8.469h1.131v6.574l4.201-6.574zm9.194 0V17h-1.131v-3.533c-.41.117-.783.199-1.12.246a9.129 9.129 0 01-1.148.064c-.972 0-1.695-.21-2.168-.632-.472-.422-.714-1.069-.726-1.94V8.47h1.13v2.707c.005.594.14 1.021.405 1.283.27.262.723.393 1.36.393.742 0 1.497-.106 2.267-.317V8.47h1.13zm6.855 4.588h-3.697v3.023h4.295V17h-5.42V8.469h5.361v.926h-4.236v2.742h3.697v.92zm8.274 1.236c-.106.902-.44 1.6-1.002 2.092-.559.488-1.303.732-2.233.732-1.008 0-1.816-.361-2.425-1.084-.606-.723-.909-1.69-.909-2.9v-.82c0-.793.141-1.49.422-2.092.285-.602.688-1.063 1.207-1.383.52-.324 1.121-.486 1.805-.486.906 0 1.633.253 2.18.761.546.504.865 1.203.955 2.098H95.13c-.098-.68-.31-1.172-.639-1.477-.324-.304-.78-.457-1.365-.457-.719 0-1.283.266-1.693.797-.407.531-.61 1.287-.61 2.268v.826c0 .926.194 1.662.58 2.209.387.547.928.82 1.623.82.625 0 1.104-.14 1.436-.422.336-.285.559-.779.668-1.482h1.13zm3.756-1.125h-1.037V17h-1.125V8.469h1.125v3.761h.878l2.983-3.761h1.4l-3.258 4.136L104.482 17h-1.377l-3.087-3.832zm10.875-4.7h1.125V17h-1.125v-6.574L106.691 17h-1.13V8.469h1.13v6.574l4.202-6.574zm7.998 4.589h-3.698v3.023h4.295V17h-5.42V8.469h5.362v.926h-4.237v2.742h3.698v.92zm11.25 1.236c-.106.902-.44 1.6-1.002 2.092-.559.488-1.303.732-2.233.732-1.008 0-1.816-.361-2.426-1.084-.605-.723-.908-1.69-.908-2.9v-.82c0-.793.141-1.49.422-2.092.285-.602.688-1.063 1.207-1.383.52-.324 1.121-.486 1.805-.486.906 0 1.633.253 2.18.761.546.504.865 1.203.955 2.098h-1.131c-.098-.68-.311-1.172-.639-1.477-.324-.304-.779-.457-1.365-.457-.719 0-1.283.266-1.694.797-.406.531-.609 1.287-.609 2.268v.826c0 .926.193 1.662.58 2.209.387.547.928.82 1.623.82.625 0 1.104-.14 1.436-.422.336-.285.558-.779.668-1.482h1.131zm6.92-5.824h1.125V17h-1.125v-6.574L132.859 17h-1.13V8.469h1.13v6.574l4.202-6.574zm9.451 5.824c-.106.902-.44 1.6-1.002 2.092-.559.488-1.303.732-2.233.732-1.007 0-1.816-.361-2.425-1.084-.606-.723-.909-1.69-.909-2.9v-.82c0-.793.141-1.49.422-2.092.285-.602.688-1.063 1.207-1.383.52-.324 1.121-.486 1.805-.486.906 0 1.633.253 2.18.761.547.504.865 1.203.955 2.098h-1.131c-.098-.68-.311-1.172-.639-1.477-.324-.304-.779-.457-1.365-.457-.719 0-1.283.266-1.693.797-.407.531-.61 1.287-.61 2.268v.826c0 .926.194 1.662.58 2.209.387.547.928.82 1.623.82.625 0 1.104-.14 1.436-.422.336-.285.558-.779.668-1.482h1.131zm7.259-4.898h-2.742V17h-1.119V9.395h-2.736v-.926h6.597v.926zm6.088 3.662h-3.697v3.023h4.295V17h-5.42V8.469h5.361v.926h-4.236v2.742h3.697v.92zm3.452-4.588l2.789 6.96 2.789-6.96h1.459V17h-1.125v-3.322l.105-3.586L166.527 17h-.861l-2.795-6.89.111 3.568V17h-1.125V8.469h1.454zm10.201 3.48h2.121c.89.012 1.586.24 2.086.686.5.445.75 1.05.75 1.816 0 .77-.252 1.383-.756 1.84-.504.457-1.192.693-2.063.709h-3.263V8.469h1.125v3.48zm0 .926v3.205h2.056c.559 0 .993-.148 1.301-.445.313-.297.469-.695.469-1.195 0-.481-.15-.86-.451-1.137-.297-.278-.721-.42-1.272-.428h-2.103zM180.625 17H179.5V8.469h1.125V17zM23.505 31h-1.13v-7.605h-4.207V31h-1.125v-8.531h6.463V31zm8.614-3.99c0 .836-.14 1.566-.422 2.191-.281.621-.68 1.096-1.195 1.424-.516.328-1.117.492-1.805.492-.672 0-1.267-.164-1.787-.492-.52-.332-.924-.803-1.213-1.412-.285-.613-.431-1.322-.44-2.127v-.615c0-.82.143-1.545.428-2.174.286-.629.688-1.11 1.208-1.442.523-.335 1.12-.503 1.793-.503.683 0 1.285.166 1.804.498.524.328.926.806 1.207 1.435.282.625.422 1.354.422 2.186v.539zM31 26.459c0-1.012-.203-1.787-.61-2.326-.406-.543-.974-.815-1.704-.815-.711 0-1.272.272-1.682.815-.406.539-.615 1.289-.627 2.25v.627c0 .98.205 1.752.615 2.314.414.559.983.838 1.705.838.727 0 1.29-.264 1.688-.79.398-.532.603-1.292.615-2.28v-.633zm12.346.55c0 .837-.14 1.567-.422 2.192-.281.621-.68 1.096-1.196 1.424-.515.328-1.117.492-1.804.492-.672 0-1.268-.164-1.787-.492-.52-.332-.924-.803-1.213-1.412-.285-.613-.432-1.322-.44-2.127v-.615c0-.82.143-1.545.428-2.174.285-.629.688-1.11 1.207-1.442.524-.335 1.121-.503 1.793-.503.684 0 1.285.166 1.805.498.523.328.926.806 1.207 1.435.281.625.422 1.354.422 2.186v.539zm-1.12-.55c0-1.012-.203-1.787-.609-2.326-.406-.543-.974-.815-1.705-.815-.71 0-1.271.272-1.681.815-.407.539-.616 1.289-.628 2.25v.627c0 .98.206 1.752.616 2.314.414.559.982.838 1.705.838.726 0 1.289-.264 1.687-.79.399-.532.604-1.292.616-2.28v-.633zM51.55 31h-1.131v-7.605h-4.207V31h-1.125v-8.531h6.463V31zm7.945-7.605h-2.742V31h-1.12v-7.605h-2.735v-.926h6.597v.925zm7.664 3.615c0 .836-.14 1.566-.422 2.191-.28.621-.68 1.096-1.195 1.424-.516.328-1.117.492-1.805.492-.671 0-1.267-.164-1.787-.492-.52-.332-.924-.803-1.213-1.412-.285-.613-.431-1.322-.44-2.127v-.615c0-.82.144-1.545.429-2.174.285-.629.687-1.11 1.207-1.442.523-.335 1.12-.503 1.793-.503.683 0 1.285.166 1.804.498.524.328.926.806 1.207 1.435.282.625.422 1.354.422 2.186v.539zm-1.119-.551c0-1.012-.203-1.787-.61-2.326-.406-.543-.974-.815-1.704-.815-.711 0-1.272.272-1.682.815-.406.539-.615 1.289-.627 2.25v.627c0 .98.205 1.752.615 2.314.414.559.983.838 1.705.838.727 0 1.29-.264 1.688-.79.398-.532.603-1.292.615-2.28v-.633zM68.846 31v-8.531h2.789c.925 0 1.62.191 2.086.574.468.383.703.95.703 1.7 0 .398-.114.751-.34 1.06a2.213 2.213 0 01-.926.709c.461.129.824.375 1.09.738.27.36.404.79.404 1.29 0 .765-.248 1.366-.744 1.804-.496.437-1.197.656-2.103.656h-2.96zm1.125-3.99v3.07h1.857c.524 0 .936-.135 1.236-.404.305-.274.458-.649.458-1.125 0-1.028-.56-1.541-1.676-1.541H69.97zm0-.903h1.699c.492 0 .885-.123 1.178-.369.296-.246.445-.58.445-1.002 0-.468-.137-.808-.41-1.02-.274-.214-.69-.322-1.248-.322H69.97v2.713zm7.529-.158h2.121c.89.012 1.586.24 2.086.686.5.445.75 1.05.75 1.816 0 .77-.252 1.383-.756 1.84-.504.457-1.191.693-2.062.709h-3.264v-8.531H77.5v3.48zm0 .926v3.205h2.057c.558 0 .992-.148 1.3-.445.313-.297.47-.696.47-1.196 0-.48-.151-.859-.452-1.136-.297-.278-.72-.42-1.272-.428H77.5zM84.613 31h-1.125v-8.531h1.125V31zm3.545-8.531l2.79 6.96 2.788-6.96h1.46V31H94.07v-3.322l.106-3.586L91.375 31h-.861l-2.795-6.89.111 3.568V31h-1.125v-8.531h1.453zm12.035 0h1.131v7.611h4.207v-7.61h1.125v7.588h.897l-.106 3h-1.013V31h-6.241v-8.531zm13.565 4.588h-3.697v3.023h4.294V31h-5.419v-8.531h5.361v.925h-4.236v2.743h3.697v.92zM122.312 31h-1.13v-3.943h-4.301V31h-1.125v-8.531h1.125v3.668h4.301v-3.668h1.13V31zm6.815-2.227h-3.574L124.75 31h-1.16l3.258-8.531h.984L131.096 31h-1.155l-.814-2.227zm-3.234-.925h2.9l-1.453-3.99-1.447 3.99zm7.804-5.38l2.789 6.962 2.789-6.961h1.459V31h-1.125v-3.322l.106-3.586L136.914 31h-.861l-2.795-6.89.111 3.568V31h-1.125v-8.531h1.453z" fill="#fff"/></g><g filter="url(#filter1_d)"><path stroke="#000" stroke-opacity=".07" d="M4.5 0v40"/></g><defs><filter id="filter0_d" x="13.043" y="8.352" width="171.582" height="32.705" filterUnits="userSpaceOnUse" color-interpolation-filters="sRGB"><feFlood flood-opacity="0" result="BackgroundImageFix"/><feColorMatrix in="SourceAlpha" values="0 0 0 0 0 0 0 0 0 0 0 0 0 0 0 0 0 0 127 0"/><feOffset dy="4"/><feGaussianBlur stdDeviation="2"/><feColorMatrix values="0 0 0 0 0 0 0 0 0 0 0 0 0 0 0 0 0 0 0.25 0"/><feBlend in2="BackgroundImageFix" result="effect1_dropShadow"/><feBlend in="SourceGraphic" in2="effect1_dropShadow" result="shape"/></filter><filter id="filter1_d" x="0" y="0" width="9" height="48" filterUnits="userSpaceOnUse" color-interpolation-filters="sRGB"><feFlood flood-opacity="0" result="BackgroundImageFix"/><feColorMatrix in="SourceAlpha" values="0 0 0 0 0 0 0 0 0 0 0 0 0 0 0 0 0 0 127 0"/><feOffset dy="4"/><feGaussianBlur stdDeviation="2"/><feColorMatrix values="0 0 0 0 0 0 0 0 0 0 0 0 0 0 0 0 0 0 0.25 0"/><feBlend in2="BackgroundImageFix" result="effect1_dropShadow"/><feBlend in="SourceGraphic" in2="effect1_dropShadow" result="shape"/></filter></defs></svg>