<svg width="186" height="38" fill="none" xmlns="http://www.w3.org/2000/svg"><path d="M23.188 34.406l-.527-.85-.003.002.53.848zm-20.32-5.789l-.902.434.001.002.9-.436zm-1.852-8.719h-1v.005l1-.005zM2.82 9.352l-.903-.43v.002l.903.428zm5.133-5.883l.525.85h.002l-.527-.85zm15.164 0l-.53.848.008.004.522-.852zm5.133 5.883l-.905.425.003.006.902-.431zm-18.164.632l.819.574.002-.003-.821-.57zM8.14 18.047l-1-.005v.005h1zm12.89 9.89l.825.566.002-.003-.827-.563zm1.922-8.109l1 .005v-.005h-1zm6.125-.117c0 3.242-.573 6.037-1.686 8.411l1.81.85c1.261-2.689 1.876-5.784 1.876-9.261h-2zm-1.686 8.411c-1.112 2.369-2.69 4.169-4.731 5.434l1.053 1.7c2.396-1.484 4.225-3.59 5.488-6.284l-1.81-.85zm-4.734 5.436c-2.029 1.266-4.373 1.91-7.064 1.91v2c3.027 0 5.745-.73 8.123-2.213l-1.059-1.697zm-7.064 1.91c-2.66 0-5-.636-7.048-1.891L7.5 35.282c2.39 1.464 5.097 2.187 8.093 2.187v-2zm-7.048-1.891c-2.044-1.252-3.637-3.039-4.779-5.396l-1.8.872c1.296 2.675 3.14 4.763 5.534 6.23l1.045-1.706zm-4.778-5.394c-1.144-2.376-1.737-5.132-1.752-8.29l-2 .01c.016 3.405.657 6.462 1.95 9.148l1.802-.868zm-1.752-8.285v-1.687h-2v1.687h2zm0-1.687c0-3.24.58-6.042 1.708-8.432l-1.808-.855c-1.277 2.704-1.9 5.808-1.9 9.287h2zm1.707-8.43C4.868 7.375 6.455 5.568 8.478 4.32l-1.05-1.702c-2.383 1.47-4.218 3.585-5.51 6.304l1.805.86zM8.48 4.32c2.046-1.268 4.392-1.913 7.067-1.913v-2c-3.013 0-5.73.731-8.12 2.213l1.053 1.7zm7.067-1.913c2.675 0 5.011.645 7.04 1.911l1.06-1.697C21.27 1.137 18.559.406 15.547.406v2zm7.048 1.915c2.037 1.249 3.622 3.054 4.75 5.456l1.81-.85c-1.278-2.724-3.115-4.84-5.515-6.31L22.595 4.32zm4.753 5.462c1.143 2.39 1.73 5.183 1.73 8.405h2c0-3.466-.632-6.564-1.926-9.268l-1.804.863zm1.73 8.405v1.523h2v-1.523h-2zm-5.125-.024c0-3.672-.653-6.626-2.098-8.724l-1.647 1.135c1.117 1.621 1.745 4.105 1.745 7.59h2zM21.855 9.44c-1.48-2.146-3.624-3.221-6.308-3.221v2c2.066 0 3.577.784 4.66 2.356l1.648-1.135zm-6.308-3.22c-2.667 0-4.803 1.066-6.282 3.195l1.642 1.141c1.084-1.559 2.588-2.336 4.64-2.336v-2zm-6.28 3.19c-1.449 2.068-2.11 4.992-2.126 8.633l2 .008c.015-3.453.65-5.904 1.764-7.493L9.267 9.41zm-2.126 8.637v1.664h2v-1.664h-2zm0 1.664c0 3.588.656 6.514 2.09 8.664l1.664-1.11c-1.13-1.693-1.754-4.173-1.754-7.554h-2zm2.09 8.664c1.475 2.214 3.639 3.328 6.363 3.328v-2c-2.089 0-3.613-.807-4.7-2.437L9.23 28.375zm6.363 3.328c2.667 0 4.798-1.067 6.262-3.2l-1.65-1.131c-1.066 1.554-2.56 2.331-4.612 2.331v2zm6.264-3.203c1.425-2.094 2.08-5.027 2.095-8.668l-2-.008c-.015 3.453-.642 5.926-1.748 7.55l1.653 1.126zm2.095-8.672v-1.664h-2v1.664h2zm31.836-3.75v1h1v-1h-1zm-8.133 0v-1h-1v1h1zm0 19.922v1h1v-1h-1zm-6.797 0h-1v1h1v-1zm0-19.922h1v-1h-1v1zm-7.992 0h-1v1h1v-1zm0-5.437v-1h-1v1h1zm22.922 0h1v-1h-1v1zm0 4.437h-8.133v2h8.133v-2zm-9.133 1V36h2V16.078h-2zm1 18.922H40.86v2h6.797v-2zm-5.797 1V16.078h-2V36h2zm-1-20.922h-7.992v2h7.992v-2zm-6.992 1v-5.437h-2v5.437h2zm-1-4.437H55.79v-2H32.867v2zm21.922-1v5.437h2v-5.437h-2zm16.844 5.414l-.654.756.01.01.012.009.632-.775zm-5.203-.047l.55.835.004-.003-.554-.832zm-1.032 1.945v1h1v-1h-1zm-6.773 0h-1v1h1v-1zm17.86-5.836l-.568.824.003.002.564-.826zm1.78 8.578l-.81-.585-.002.003.813.582zm-2.859 2.25l-.414-.91-2.26 1.03 2.343.824.331-.944zm1.336 11.461l.57.822h.001l-.57-.822zM58.227 28.5v-1h-1v1h1zm6.773 0h1v-1h-1v1zm7.008-2.531l-.603.797.006.005.006.005.59-.807zm-6.563-.727h-1v1h1v-1zm0-4.406v-1h-1v1h1zm3.914 0v1h.03l-.03-1zm4.164-2.719c0-1.136-.392-2.13-1.258-2.837L71 16.83c.321.262.522.643.522 1.287h2zm-1.236-2.819c-.822-.71-1.918-.993-3.139-.993v2c.936 0 1.497.217 1.83.506l1.309-1.513zm-3.139-.993c-1.245 0-2.361.263-3.273.87l1.11 1.665c.494-.33 1.19-.535 2.163-.535v-2zm-3.269.868c-.976.643-1.48 1.61-1.48 2.78h2c0-.517.183-.848.581-1.11l-1.1-1.67zm-.48 1.78h-6.774v2h6.773v-2zm-5.774 1c0-1.969.794-3.546 2.462-4.803l-1.205-1.597c-2.145 1.618-3.257 3.775-3.257 6.4h2zm2.462-4.803c1.694-1.278 3.905-1.955 6.71-1.955v-2c-3.132 0-5.796.76-7.915 2.358l1.205 1.597zm6.71-1.955c3.15 0 5.487.62 7.12 1.746l1.135-1.647c-2.086-1.437-4.873-2.099-8.255-2.099v2zm7.123 1.748c1.59 1.086 2.377 2.59 2.377 4.635h2c0-2.674-1.088-4.81-3.248-6.287l-1.129 1.652zm2.377 4.635c0 .905-.272 1.741-.842 2.532l1.622 1.17c.804-1.115 1.22-2.357 1.22-3.702h-2zm-.844 2.535c-.554.772-1.358 1.42-2.461 1.922l.829 1.82c1.365-.622 2.467-1.474 3.257-2.577l-1.625-1.165zm-2.378 3.776c1.305.458 2.202 1.1 2.778 1.882.573.777.89 1.775.89 3.057h2c0-1.624-.407-3.06-1.28-4.244-.869-1.179-2.14-2.025-3.725-2.582l-.663 1.887zm3.667 4.94c0 1.982-.825 3.542-2.57 4.756l1.141 1.642c2.254-1.567 3.43-3.726 3.43-6.399h-2zm-2.57 4.755c-1.765 1.223-4.192 1.885-7.375 1.885v2c3.442 0 6.311-.714 8.515-2.24l-1.14-1.645zm-7.375 1.885c-2.922 0-5.233-.681-7.007-1.966l-1.173 1.62c2.194 1.589 4.946 2.346 8.18 2.346v-2zm-7.007-1.966c-1.727-1.25-2.563-2.888-2.563-5.003h-2c0 2.76 1.147 4.998 3.39 6.622l1.173-1.62zM58.227 29.5H65v-2h-6.773v2zm5.773-1c0 1.218.57 2.208 1.578 2.907l1.14-1.643C66.196 29.401 66 29 66 28.5h-2zm1.578 2.907c.98.68 2.197.976 3.57.976v-2c-1.095 0-1.878-.236-2.43-.619l-1.14 1.643zm3.57.976c1.351 0 2.546-.316 3.455-1.077l-1.284-1.534c-.435.364-1.115.61-2.17.61v2zm3.455-1.077c.907-.76 1.366-1.78 1.366-2.97h-2c0 .622-.214 1.071-.65 1.436l1.284 1.534zm1.366-2.97c0-1.293-.38-2.45-1.37-3.174l-1.182 1.614c.29.212.552.634.552 1.56h2zM72.61 25.17c-.89-.673-2.107-.929-3.486-.929v2c1.184 0 1.889.229 2.28.524l1.206-1.595zm-3.486-.929h-3.68v2h3.68v-2zm-2.68 1v-4.406h-2v4.406h2zm-1-3.406h3.914v-2h-3.914v2zm3.944 0c1.17-.035 2.224-.306 2.995-.968.804-.69 1.14-1.666 1.14-2.75h-2c0 .664-.192 1.017-.443 1.233-.284.244-.812.458-1.751.485l.059 2zm21.72-3.766h-1v1h1v-1zm14.414 4.266l-.843.537.007.011.836-.548zm-1.64 11.227l.636.77h.001l-.637-.77zM84.313 36h-1v1h1v-1zm0-25.36v-1h-1v1h1zm6.796 0h1v-1h-1v1zM117.641 36v1h1v-1h-1zm-6.774 0h-1v1h1v-1zm0-25.36v-1h-1v1h1zm6.774 0h1v-1h-1v1zM91.109 23.509v-1h-1v1h1zm0 7.078h-1v1h1v-1zm7.922-6.094l-.682.731.009.008.673-.739zM91.11 19.07h4.852v-2H91.11v2zm4.852 0c2.076 0 3.855.349 5.36 1.016l.811-1.828c-1.808-.802-3.872-1.188-6.171-1.188v2zm5.36 1.016c1.497.664 2.601 1.596 3.359 2.787l1.687-1.074c-.992-1.56-2.42-2.736-4.235-3.541l-.811 1.828zm3.366 2.798c.772 1.178 1.172 2.569 1.172 4.21h2c0-1.984-.49-3.765-1.499-5.306l-1.673 1.096zm1.172 4.21c0 2.386-.869 4.255-2.613 5.698l1.274 1.541c2.224-1.838 3.339-4.282 3.339-7.24h-2zm-2.613 5.697C101.509 34.225 99.072 35 95.82 35v2c3.56 0 6.499-.85 8.699-2.666l-1.273-1.543zM95.82 35H84.313v2H95.82v-2zm-10.507 1V10.64h-2V36h2zm-1-24.36h6.796v-2h-6.796v2zm5.796-1v7.43h2v-7.43h-2zM117.641 35h-6.774v2h6.774v-2zm-5.774 1V10.64h-2V36h2zm-1-24.36h6.774v-2h-6.774v2zm5.774-1V36h2V10.64h-2zM90.109 23.509v7.078h2v-7.078h-2zm1 8.078h4.805v-2H91.11v2zm4.805 0c1.487 0 2.787-.345 3.75-1.183l-1.312-1.51c-.475.413-1.237.693-2.438.693v2zm3.75-1.183c.967-.841 1.422-1.984 1.422-3.31h-2c0 .832-.264 1.392-.734 1.8l1.312 1.51zm1.422-3.31c0-1.328-.438-2.48-1.381-3.34l-1.347 1.478c.463.422.728 1.004.728 1.863h2zm-1.372-3.332c-.955-.89-2.28-1.253-3.8-1.253v2c1.23 0 1.983.294 2.435.715l1.365-1.462zm-3.8-1.253H91.11v2h4.805v-2zM124.062 36h-1v1h1v-1zm0-25.36v-1h-1v1h1zm20.133 10.243l-.768-.64h-.001l.769.64zm-3.375 2.133l-.319-.948-3.618 1.219 3.751.711.186-.982zm4.266 2.039l-.702.712.006.006.005.005.691-.723zm-1.102 9.093l-.569-.822-.004.003.573.82zm-13.148-8.671v-1h-1v1h1zm0 5.109h-1v1h1v-1zm5.625-5.11l.014-1h-.014v1zm-5.625-4.546h-1v1h1v-1zm4.195 0v1h.013l-.013-1zm2.578-4.266l-.52.854.009.005.511-.859zm-6.773-.586v-1h-1v1h1zM125.062 36V10.64h-2V36h2zm-1-24.36h10.594v-2h-10.594v2zm10.594 0c3.359 0 5.782.597 7.394 1.663l1.103-1.669c-2.075-1.371-4.949-1.993-8.497-1.993v2zm7.394 1.663c1.553 1.026 2.317 2.457 2.317 4.416h2c0-2.604-1.08-4.674-3.214-6.085l-1.103 1.669zm2.317 4.416c0 .927-.302 1.758-.94 2.524l1.537 1.28c.924-1.11 1.403-2.388 1.403-3.804h-2zm-.941 2.525c-.616.742-1.563 1.365-2.925 1.824l.639 1.895c1.607-.541 2.909-1.34 3.825-2.441l-1.539-1.278zm-2.792 3.754c1.671.317 2.894.926 3.75 1.77l1.404-1.426c-1.207-1.188-2.827-1.938-4.781-2.309l-.373 1.965zm3.761 1.78c.846.808 1.261 1.78 1.261 2.98h2c0-1.738-.632-3.235-1.879-4.426l-1.382 1.446zm1.261 2.98c0 2.065-.756 3.54-2.241 4.569l1.139 1.643c2.078-1.44 3.102-3.559 3.102-6.212h-2zm-2.245 4.57c-1.527 1.068-3.86 1.672-7.138 1.672v2c3.473 0 6.28-.63 8.284-2.032l-1.146-1.64zM136.273 35h-12.211v2h12.211v-2zm-6.437-9.523v5.109h2v-5.11h-2zm1 6.109h5.461v-2h-5.461v2zm5.461 0c1.281 0 2.42-.218 3.262-.807.908-.635 1.324-1.594 1.324-2.7h-2c0 .564-.182.86-.47 1.06-.353.247-1.007.447-2.116.447v2zm4.586-3.508c0-1.098-.383-2.064-1.25-2.724-.815-.62-1.921-.86-3.158-.877l-.028 2c1.044.014 1.649.222 1.975.47.273.207.461.526.461 1.131h2zm-4.422-3.601h-5.625v2h5.625v-2zm-5.625-2.547h4.195v-2h-4.195v2zm4.208 0c1.262-.017 2.375-.225 3.201-.758.9-.58 1.349-1.474 1.349-2.54h-2c0 .436-.145.674-.433.86-.362.233-1.029.423-2.143.438l.026 2zm4.55-3.297c0-1.189-.447-2.217-1.473-2.828l-1.023 1.718c.286.17.496.455.496 1.11h2zm-1.464-2.823c-.877-.534-2.085-.732-3.474-.732v2c1.267 0 2.028.193 2.433.44l1.041-1.708zm-3.474-.732h-3.82v2h3.82v-2zm-4.82 1v4.852h2v-4.852h-2zm28.211 1.992h-1v1h1v-1zm14.414 4.266l-.844.537.007.011.837-.548zm-1.641 11.227l.637.77h.001l-.638-.77zM151.25 36h-1v1h1v-1zm0-25.36v-1h-1v1h1zm6.797 0h1v-1h-1v1zM184.578 36v1h1v-1h-1zm-6.773 0h-1v1h1v-1zm0-25.36v-1h-1v1h1zm6.773 0h1v-1h-1v1zm-26.531 12.868v-1h-1v1h1zm0 7.078h-1v1h1v-1zm7.922-6.094l-.683.731.009.008.674-.739zm-7.922-5.422h4.851v-2h-4.851v2zm4.851 0c2.077 0 3.856.349 5.361 1.016l.81-1.828c-1.807-.802-3.872-1.188-6.171-1.188v2zm5.361 1.016c1.497.664 2.601 1.596 3.358 2.787l1.688-1.074c-.993-1.56-2.42-2.736-4.236-3.541l-.81 1.828zm3.365 2.798c.772 1.178 1.173 2.569 1.173 4.21h2c0-1.984-.49-3.765-1.5-5.306l-1.673 1.096zm1.173 4.21c0 2.386-.869 4.255-2.614 5.698l1.275 1.541c2.223-1.838 3.339-4.282 3.339-7.24h-2zm-2.613 5.697C168.446 34.225 166.01 35 162.758 35v2c3.56 0 6.499-.85 8.699-2.666l-1.273-1.543zM162.758 35H151.25v2h11.508v-2zm-10.508 1V10.64h-2V36h2zm-1-24.36h6.797v-2h-6.797v2zm5.797-1v7.43h2v-7.43h-2zM184.578 35h-6.773v2h6.773v-2zm-5.773 1V10.64h-2V36h2zm-1-24.36h6.773v-2h-6.773v2zm5.773-1V36h2V10.64h-2zm-26.531 12.868v7.078h2v-7.078h-2zm1 8.078h4.805v-2h-4.805v2zm4.805 0c1.486 0 2.786-.345 3.749-1.183l-1.312-1.51c-.474.413-1.237.693-2.437.693v2zm3.749-1.183c.968-.841 1.422-1.984 1.422-3.31h-2c0 .832-.264 1.392-.734 1.8l1.312 1.51zm1.422-3.31c0-1.328-.438-2.48-1.381-3.34l-1.347 1.478c.463.422.728 1.004.728 1.863h2zm-1.372-3.332c-.955-.89-2.28-1.253-3.799-1.253v2c1.23 0 1.983.294 2.434.715l1.365-1.462zm-3.799-1.253h-4.805v2h4.805v-2z" fill="#74576D" fill-opacity=".1"/></svg>